<svg width="15" height="14" viewBox="0 0 15 14" fill="none" xmlns="http://www.w3.org/2000/svg">
<path d="M14.3642 10.8413V13.1441C14.3642 13.4146 14.1426 13.631 13.8657 13.631H12.5287C11.0572 13.631 10.2582 13.1519 10.0209 12.0391C9.99713 11.9309 9.84682 11.9 9.78353 11.9927C9.07151 13.1596 7.60001 13.9092 5.59055 13.9092C2.65547 13.9092 0.796326 12.325 0.796326 9.86755C0.796326 7.36374 2.73459 5.8259 6.45288 5.8259H9.49081V5.43951C9.49081 4.00986 8.75506 3.34527 7.21236 3.34527C6.06523 3.34527 4.99721 3.73939 4.11906 4.47353C3.91336 4.64354 3.60482 4.65127 3.41495 4.45808L1.93555 2.93569C1.75359 2.75023 1.74568 2.44884 1.92764 2.2711C3.233 0.988284 5.23455 0.230957 7.50508 0.230957C11.0968 0.230957 13.0825 2.12427 13.0825 5.29268V10.2771C13.0825 10.7099 13.217 10.8413 13.5809 10.8413H14.3642ZM9.49081 8.53837V8.12879H6.82471C5.17126 8.12879 4.46715 8.63883 4.46715 9.66663C4.46715 10.6635 5.14753 11.2276 6.48453 11.2276C8.31203 11.2276 9.49081 10.1535 9.49081 8.53837Z" fill="#012D26"/>
</svg>
