<svg width="17" height="19" viewBox="0 0 17 19" fill="none" xmlns="http://www.w3.org/2000/svg">
<path d="M16.3004 1.27231V18.0803C16.3004 18.3817 16.0472 18.629 15.7387 18.629H13.0093C12.7008 18.629 12.4476 18.3817 12.4476 18.0803V11.2103H4.89235C4.58381 11.2103 4.33065 11.4576 4.33065 11.759V18.0803C4.33065 18.3817 4.07749 18.629 3.76895 18.629H1.01583C0.707292 18.629 0.454132 18.3817 0.454132 18.0803V1.27231C0.454132 0.970923 0.707292 0.723633 1.01583 0.723633H3.76895C4.07749 0.723633 4.33065 0.970923 4.33065 1.27231V7.73277H11.8859C12.1944 7.73277 12.4476 7.48548 12.4476 7.18409V1.27231C12.4476 0.970923 12.7008 0.723633 13.0093 0.723633H15.7387C16.0551 0.723633 16.3004 0.970923 16.3004 1.27231Z" fill="#012D26"/>
</svg>
