<svg width="13" height="14" viewBox="0 0 13 14" fill="none" xmlns="http://www.w3.org/2000/svg">
<path d="M12.5408 1.08101V13.1364C12.5408 13.4069 12.3114 13.631 12.0345 13.631H9.40796C9.13106 13.631 8.90164 13.4069 8.90164 13.1364V11.7145C8.16589 13.0978 6.56781 13.9942 4.60582 13.9942C1.80524 13.9942 0.230896 12.2323 0.230896 9.1334V1.08101C0.230896 0.810533 0.460322 0.586426 0.737216 0.586426H3.44286C3.71976 0.586426 3.94918 0.810533 3.94918 1.08101V8.18288C3.94918 9.86754 4.50298 10.6867 6.04567 10.6867C7.74659 10.6867 8.82252 9.71299 8.82252 7.95104V1.08101C8.82252 0.810533 9.05195 0.586426 9.32884 0.586426H12.0345C12.3193 0.586426 12.5408 0.810533 12.5408 1.08101Z" fill="#012D26"/>
</svg>
