<svg width="13" height="14" viewBox="0 0 13 14" fill="none" xmlns="http://www.w3.org/2000/svg">
<path d="M0.956482 11.2973L2.13526 9.74399C2.31722 9.50443 2.66532 9.45033 2.90266 9.6358C3.96277 10.455 5.43425 10.9727 6.88993 10.9727C8.20319 10.9727 8.9073 10.54 8.9073 9.87536C8.9073 9.31123 8.43262 8.95575 7.30922 8.70074L5.08616 8.1907C2.28557 7.52611 1.18591 6.24329 1.18591 4.45816C1.18591 1.97753 3.28239 0.23877 6.81873 0.23877C8.93894 0.23877 10.806 0.864723 12.0402 1.8848C12.2617 2.07026 12.3091 2.3871 12.1351 2.61894L10.9326 4.2186C10.7585 4.45043 10.4263 4.4968 10.181 4.33452C9.04179 3.60037 7.88675 3.28353 6.77126 3.28353C5.48964 3.28353 4.88838 3.69311 4.88838 4.33452C4.88838 4.79818 5.28395 5.13048 6.46272 5.3855L8.76489 5.91872C11.6209 6.58331 12.6414 7.86613 12.6414 9.68217C12.6414 12.3174 10.5212 14.002 6.88202 14.002C4.46117 14.002 2.35678 13.2602 1.01977 12.0005C0.806169 11.8073 0.790345 11.5059 0.956482 11.2973Z" fill="#012D26"/>
</svg>
